<svg width="1440" height="1024" viewBox="0 0 1440 1024" fill="none" xmlns="http://www.w3.org/2000/svg">
<rect width="1440" height="1024" fill="#E5E5E5"/>
<rect width="1440" height="1024" fill="white"/>
<rect x="591" y="80" width="171" height="65" fill="#D9D9D9"/>
<path d="M645.114 121V103.545H647.227V111.318H656.534V103.545H658.648V121H656.534V113.193H647.227V121H645.114ZM667.925 121.273C666.743 121.273 665.706 120.991 664.814 120.429C663.928 119.866 663.234 119.08 662.734 118.068C662.24 117.057 661.993 115.875 661.993 114.523C661.993 113.159 662.24 111.969 662.734 110.952C663.234 109.935 663.928 109.145 664.814 108.582C665.706 108.02 666.743 107.739 667.925 107.739C669.107 107.739 670.141 108.02 671.027 108.582C671.919 109.145 672.612 109.935 673.107 110.952C673.607 111.969 673.857 113.159 673.857 114.523C673.857 115.875 673.607 117.057 673.107 118.068C672.612 119.08 671.919 119.866 671.027 120.429C670.141 120.991 669.107 121.273 667.925 121.273ZM667.925 119.466C668.822 119.466 669.561 119.236 670.141 118.776C670.72 118.315 671.149 117.71 671.428 116.96C671.706 116.21 671.845 115.398 671.845 114.523C671.845 113.648 671.706 112.832 671.428 112.077C671.149 111.321 670.72 110.71 670.141 110.244C669.561 109.778 668.822 109.545 667.925 109.545C667.027 109.545 666.288 109.778 665.709 110.244C665.129 110.71 664.7 111.321 664.422 112.077C664.143 112.832 664.004 113.648 664.004 114.523C664.004 115.398 664.143 116.21 664.422 116.96C664.7 117.71 665.129 118.315 665.709 118.776C666.288 119.236 667.027 119.466 667.925 119.466ZM676.927 121V107.909H678.87V109.955H679.04C679.313 109.256 679.754 108.713 680.362 108.327C680.969 107.935 681.7 107.739 682.552 107.739C683.415 107.739 684.134 107.935 684.708 108.327C685.288 108.713 685.739 109.256 686.063 109.955H686.2C686.535 109.278 687.038 108.741 687.708 108.344C688.379 107.94 689.183 107.739 690.12 107.739C691.29 107.739 692.248 108.105 692.992 108.838C693.737 109.565 694.109 110.699 694.109 112.239V121H692.097V112.239C692.097 111.273 691.833 110.582 691.305 110.168C690.776 109.753 690.154 109.545 689.438 109.545C688.518 109.545 687.805 109.824 687.299 110.381C686.793 110.932 686.54 111.631 686.54 112.477V121H684.495V112.034C684.495 111.29 684.254 110.69 683.771 110.236C683.288 109.776 682.665 109.545 681.904 109.545C681.381 109.545 680.893 109.685 680.438 109.963C679.989 110.241 679.626 110.628 679.347 111.122C679.075 111.611 678.938 112.176 678.938 112.818V121H676.927ZM703.275 121.273C702.013 121.273 700.925 120.994 700.011 120.438C699.102 119.875 698.4 119.091 697.906 118.085C697.417 117.074 697.173 115.898 697.173 114.557C697.173 113.216 697.417 112.034 697.906 111.011C698.4 109.983 699.087 109.182 699.968 108.608C700.854 108.028 701.888 107.739 703.07 107.739C703.752 107.739 704.425 107.852 705.09 108.08C705.755 108.307 706.36 108.676 706.906 109.188C707.451 109.693 707.886 110.364 708.21 111.199C708.533 112.034 708.695 113.062 708.695 114.284V115.136H698.604V113.398H706.65C706.65 112.659 706.502 112 706.207 111.42C705.917 110.841 705.502 110.384 704.962 110.048C704.428 109.713 703.798 109.545 703.07 109.545C702.269 109.545 701.576 109.744 700.991 110.142C700.411 110.534 699.965 111.045 699.653 111.676C699.34 112.307 699.184 112.983 699.184 113.705V114.864C699.184 115.852 699.354 116.69 699.695 117.378C700.042 118.06 700.522 118.58 701.136 118.938C701.749 119.29 702.462 119.466 703.275 119.466C703.803 119.466 704.281 119.392 704.707 119.244C705.138 119.091 705.511 118.864 705.823 118.562C706.136 118.256 706.377 117.875 706.548 117.42L708.491 117.966C708.286 118.625 707.942 119.205 707.46 119.705C706.977 120.199 706.38 120.585 705.67 120.864C704.96 121.136 704.161 121.273 703.275 121.273Z" fill="black"/>
<line x1="139" y1="221.5" x2="1225" y2="221.5" stroke="black"/>
<line x1="676.5" y1="144" x2="676.5" y2="222" stroke="black"/>
<rect x="76" y="299" width="126" height="66" fill="#D9D9D9"/>
<path d="M103.659 327.909C103.557 327.045 103.142 326.375 102.415 325.898C101.688 325.42 100.795 325.182 99.7386 325.182C98.9659 325.182 98.2898 325.307 97.7102 325.557C97.1364 325.807 96.6875 326.151 96.3636 326.588C96.0455 327.026 95.8864 327.523 95.8864 328.08C95.8864 328.545 95.9972 328.946 96.2188 329.281C96.446 329.611 96.7358 329.886 97.0881 330.108C97.4403 330.324 97.8097 330.503 98.196 330.645C98.5824 330.781 98.9375 330.892 99.2614 330.977L101.034 331.455C101.489 331.574 101.994 331.739 102.551 331.949C103.114 332.159 103.651 332.446 104.162 332.81C104.679 333.168 105.105 333.628 105.44 334.19C105.776 334.753 105.943 335.443 105.943 336.261C105.943 337.205 105.696 338.057 105.202 338.818C104.713 339.58 103.997 340.185 103.054 340.634C102.116 341.082 100.977 341.307 99.6364 341.307C98.3864 341.307 97.304 341.105 96.3892 340.702C95.4801 340.298 94.7642 339.736 94.2415 339.014C93.7244 338.293 93.4318 337.455 93.3636 336.5H95.5455C95.6023 337.159 95.8239 337.705 96.2102 338.136C96.6023 338.562 97.0966 338.881 97.6932 339.091C98.2955 339.295 98.9432 339.398 99.6364 339.398C100.443 339.398 101.168 339.267 101.81 339.006C102.452 338.739 102.96 338.369 103.335 337.898C103.71 337.42 103.898 336.864 103.898 336.227C103.898 335.648 103.736 335.176 103.412 334.812C103.088 334.449 102.662 334.153 102.134 333.926C101.605 333.699 101.034 333.5 100.42 333.33L98.2727 332.716C96.9091 332.324 95.8295 331.764 95.0341 331.037C94.2386 330.31 93.8409 329.358 93.8409 328.182C93.8409 327.205 94.1051 326.352 94.6335 325.625C95.1676 324.892 95.8835 324.324 96.7812 323.92C97.6847 323.511 98.6932 323.307 99.8068 323.307C100.932 323.307 101.932 323.509 102.807 323.912C103.682 324.31 104.375 324.855 104.886 325.548C105.403 326.241 105.676 327.028 105.705 327.909H103.659ZM114.634 341.273C113.373 341.273 112.285 340.994 111.37 340.438C110.461 339.875 109.759 339.091 109.265 338.085C108.776 337.074 108.532 335.898 108.532 334.557C108.532 333.216 108.776 332.034 109.265 331.011C109.759 329.983 110.447 329.182 111.327 328.608C112.214 328.028 113.248 327.739 114.43 327.739C115.112 327.739 115.785 327.852 116.45 328.08C117.114 328.307 117.719 328.676 118.265 329.188C118.81 329.693 119.245 330.364 119.569 331.199C119.893 332.034 120.055 333.062 120.055 334.284V335.136H109.964V333.398H118.009C118.009 332.659 117.862 332 117.566 331.42C117.276 330.841 116.862 330.384 116.322 330.048C115.788 329.713 115.157 329.545 114.43 329.545C113.629 329.545 112.935 329.744 112.35 330.142C111.771 330.534 111.325 331.045 111.012 331.676C110.7 332.307 110.543 332.983 110.543 333.705V334.864C110.543 335.852 110.714 336.69 111.055 337.378C111.401 338.06 111.881 338.58 112.495 338.938C113.109 339.29 113.822 339.466 114.634 339.466C115.163 339.466 115.64 339.392 116.066 339.244C116.498 339.091 116.87 338.864 117.183 338.562C117.495 338.256 117.737 337.875 117.907 337.42L119.85 337.966C119.646 338.625 119.302 339.205 118.819 339.705C118.336 340.199 117.739 340.585 117.029 340.864C116.319 341.136 115.521 341.273 114.634 341.273ZM125.126 323.545V341H123.114V323.545H125.126ZM130.821 323.545V341H128.81V323.545H130.821ZM146.573 341.273C145.346 341.273 144.289 340.983 143.403 340.403C142.516 339.824 141.835 339.026 141.357 338.009C140.88 336.991 140.641 335.83 140.641 334.523C140.641 333.193 140.886 332.02 141.374 331.003C141.869 329.98 142.556 329.182 143.437 328.608C144.323 328.028 145.357 327.739 146.539 327.739C147.46 327.739 148.289 327.909 149.028 328.25C149.766 328.591 150.371 329.068 150.843 329.682C151.315 330.295 151.607 331.011 151.721 331.83H149.71C149.556 331.233 149.215 330.705 148.687 330.244C148.164 329.778 147.46 329.545 146.573 329.545C145.789 329.545 145.102 329.75 144.511 330.159C143.925 330.562 143.468 331.134 143.138 331.872C142.815 332.605 142.653 333.466 142.653 334.455C142.653 335.466 142.812 336.347 143.13 337.097C143.454 337.847 143.908 338.429 144.494 338.844C145.085 339.259 145.778 339.466 146.573 339.466C147.096 339.466 147.57 339.375 147.996 339.193C148.423 339.011 148.783 338.75 149.079 338.409C149.374 338.068 149.585 337.659 149.71 337.182H151.721C151.607 337.955 151.326 338.651 150.877 339.27C150.434 339.884 149.846 340.372 149.113 340.736C148.386 341.094 147.539 341.273 146.573 341.273ZM158.513 341.307C157.684 341.307 156.931 341.151 156.255 340.838C155.579 340.52 155.042 340.062 154.644 339.466C154.246 338.864 154.048 338.136 154.048 337.284C154.048 336.534 154.195 335.926 154.491 335.46C154.786 334.989 155.181 334.619 155.675 334.352C156.17 334.085 156.715 333.886 157.312 333.756C157.914 333.619 158.519 333.511 159.127 333.432C159.923 333.33 160.567 333.253 161.062 333.202C161.562 333.145 161.925 333.051 162.153 332.92C162.386 332.79 162.502 332.562 162.502 332.239V332.17C162.502 331.33 162.272 330.676 161.812 330.21C161.357 329.744 160.667 329.511 159.741 329.511C158.781 329.511 158.028 329.722 157.482 330.142C156.937 330.562 156.553 331.011 156.332 331.489L154.423 330.807C154.763 330.011 155.218 329.392 155.786 328.949C156.36 328.5 156.985 328.187 157.661 328.011C158.343 327.83 159.013 327.739 159.673 327.739C160.093 327.739 160.576 327.79 161.121 327.892C161.673 327.989 162.204 328.19 162.715 328.497C163.232 328.804 163.661 329.267 164.002 329.886C164.343 330.506 164.513 331.335 164.513 332.375V341H162.502V339.227H162.4C162.263 339.511 162.036 339.815 161.718 340.139C161.4 340.463 160.977 340.739 160.448 340.966C159.92 341.193 159.275 341.307 158.513 341.307ZM158.82 339.5C159.616 339.5 160.286 339.344 160.832 339.031C161.383 338.719 161.798 338.315 162.076 337.821C162.36 337.327 162.502 336.807 162.502 336.261V334.42C162.417 334.523 162.229 334.616 161.94 334.702C161.656 334.781 161.326 334.852 160.951 334.915C160.582 334.972 160.221 335.023 159.869 335.068C159.522 335.108 159.241 335.142 159.025 335.17C158.502 335.239 158.013 335.349 157.559 335.503C157.11 335.651 156.746 335.875 156.468 336.176C156.195 336.472 156.059 336.875 156.059 337.386C156.059 338.085 156.317 338.614 156.835 338.972C157.357 339.324 158.019 339.5 158.82 339.5ZM168.185 341V327.909H170.128V329.886H170.264C170.503 329.239 170.935 328.713 171.56 328.31C172.185 327.906 172.889 327.705 173.673 327.705C173.821 327.705 174.006 327.707 174.227 327.713C174.449 327.719 174.616 327.727 174.73 327.739V329.784C174.662 329.767 174.506 329.741 174.261 329.707C174.023 329.668 173.77 329.648 173.503 329.648C172.866 329.648 172.298 329.781 171.798 330.048C171.304 330.31 170.912 330.673 170.622 331.139C170.338 331.599 170.196 332.125 170.196 332.716V341H168.185ZM186.387 330.841L184.58 331.352C184.467 331.051 184.299 330.759 184.077 330.474C183.862 330.185 183.566 329.946 183.191 329.759C182.816 329.571 182.336 329.477 181.751 329.477C180.95 329.477 180.282 329.662 179.748 330.031C179.219 330.395 178.955 330.858 178.955 331.42C178.955 331.92 179.137 332.315 179.501 332.605C179.864 332.895 180.433 333.136 181.205 333.33L183.148 333.807C184.319 334.091 185.191 334.526 185.765 335.111C186.339 335.69 186.626 336.437 186.626 337.352C186.626 338.102 186.41 338.773 185.978 339.364C185.552 339.955 184.955 340.42 184.188 340.761C183.421 341.102 182.529 341.273 181.512 341.273C180.177 341.273 179.072 340.983 178.197 340.403C177.322 339.824 176.768 338.977 176.535 337.864L178.444 337.386C178.626 338.091 178.969 338.619 179.475 338.972C179.987 339.324 180.654 339.5 181.478 339.5C182.415 339.5 183.16 339.301 183.711 338.903C184.268 338.5 184.546 338.017 184.546 337.455C184.546 337 184.387 336.619 184.069 336.312C183.751 336 183.262 335.767 182.603 335.614L180.421 335.102C179.222 334.818 178.342 334.378 177.779 333.781C177.222 333.179 176.944 332.426 176.944 331.523C176.944 330.784 177.151 330.131 177.566 329.562C177.987 328.994 178.558 328.548 179.279 328.224C180.006 327.901 180.83 327.739 181.751 327.739C183.046 327.739 184.063 328.023 184.802 328.591C185.546 329.159 186.075 329.909 186.387 330.841Z" fill="black"/>
<rect x="261" y="299" width="126" height="66" fill="#D9D9D9"/>
<rect x="462" y="299" width="126" height="66" fill="#D9D9D9"/>
<rect x="742" y="299" width="126" height="66" fill="#D9D9D9"/>
<path d="M774.83 341H772.614L779.023 323.545H781.205L787.614 341H785.398L780.182 326.307H780.045L774.83 341ZM775.648 334.182H784.58V336.057H775.648V334.182ZM790.332 341V323.545H792.344V329.989H792.514C792.662 329.761 792.866 329.472 793.128 329.119C793.395 328.761 793.776 328.443 794.27 328.165C794.77 327.881 795.446 327.739 796.298 327.739C797.401 327.739 798.372 328.014 799.213 328.565C800.054 329.116 800.71 329.898 801.182 330.909C801.653 331.92 801.889 333.114 801.889 334.489C801.889 335.875 801.653 337.077 801.182 338.094C800.71 339.105 800.057 339.889 799.222 340.446C798.386 340.997 797.423 341.273 796.332 341.273C795.491 341.273 794.818 341.134 794.312 340.855C793.807 340.571 793.418 340.25 793.145 339.892C792.872 339.528 792.662 339.227 792.514 338.989H792.276V341H790.332ZM792.31 334.455C792.31 335.443 792.455 336.315 792.744 337.071C793.034 337.821 793.457 338.409 794.014 338.835C794.571 339.256 795.253 339.466 796.06 339.466C796.901 339.466 797.602 339.244 798.165 338.801C798.733 338.352 799.159 337.75 799.443 336.994C799.733 336.233 799.878 335.386 799.878 334.455C799.878 333.534 799.736 332.705 799.452 331.966C799.173 331.222 798.75 330.634 798.182 330.202C797.619 329.764 796.912 329.545 796.06 329.545C795.241 329.545 794.554 329.753 793.997 330.168C793.44 330.577 793.02 331.151 792.736 331.889C792.452 332.622 792.31 333.477 792.31 334.455ZM810.284 341.273C809.102 341.273 808.065 340.991 807.173 340.429C806.287 339.866 805.594 339.08 805.094 338.068C804.599 337.057 804.352 335.875 804.352 334.523C804.352 333.159 804.599 331.969 805.094 330.952C805.594 329.935 806.287 329.145 807.173 328.582C808.065 328.02 809.102 327.739 810.284 327.739C811.466 327.739 812.5 328.02 813.386 328.582C814.278 329.145 814.972 329.935 815.466 330.952C815.966 331.969 816.216 333.159 816.216 334.523C816.216 335.875 815.966 337.057 815.466 338.068C814.972 339.08 814.278 339.866 813.386 340.429C812.5 340.991 811.466 341.273 810.284 341.273ZM810.284 339.466C811.182 339.466 811.92 339.236 812.5 338.776C813.08 338.315 813.509 337.71 813.787 336.96C814.065 336.21 814.205 335.398 814.205 334.523C814.205 333.648 814.065 332.832 813.787 332.077C813.509 331.321 813.08 330.71 812.5 330.244C811.92 329.778 811.182 329.545 810.284 329.545C809.386 329.545 808.648 329.778 808.068 330.244C807.489 330.71 807.06 331.321 806.781 332.077C806.503 332.832 806.364 333.648 806.364 334.523C806.364 335.398 806.503 336.21 806.781 336.96C807.06 337.71 807.489 338.315 808.068 338.776C808.648 339.236 809.386 339.466 810.284 339.466ZM827.536 335.648V327.909H829.548V341H827.536V338.784H827.4C827.093 339.449 826.616 340.014 825.968 340.48C825.32 340.94 824.502 341.17 823.513 341.17C822.695 341.17 821.968 340.991 821.332 340.634C820.695 340.27 820.195 339.724 819.832 338.997C819.468 338.264 819.286 337.341 819.286 336.227V327.909H821.298V336.091C821.298 337.045 821.565 337.807 822.099 338.375C822.638 338.943 823.326 339.227 824.161 339.227C824.661 339.227 825.17 339.099 825.687 338.844C826.21 338.588 826.647 338.196 826.999 337.668C827.357 337.139 827.536 336.466 827.536 335.648ZM838.925 327.909V329.614H832.141V327.909H838.925ZM834.118 324.773H836.129V337.25C836.129 337.818 836.212 338.244 836.376 338.528C836.547 338.807 836.763 338.994 837.024 339.091C837.291 339.182 837.572 339.227 837.868 339.227C838.089 339.227 838.271 339.216 838.413 339.193C838.555 339.165 838.669 339.142 838.754 339.125L839.163 340.932C839.027 340.983 838.837 341.034 838.592 341.085C838.348 341.142 838.038 341.17 837.663 341.17C837.095 341.17 836.538 341.048 835.993 340.804C835.453 340.56 835.004 340.188 834.646 339.688C834.294 339.188 834.118 338.557 834.118 337.795V324.773Z" fill="black"/>
<rect x="943" y="299" width="126" height="66" fill="#D9D9D9"/>
<rect x="1138" y="299" width="174" height="66" fill="#D9D9D9"/>
<path d="M1148.11 341V323.545H1154.01C1155.38 323.545 1156.5 323.793 1157.37 324.287C1158.24 324.776 1158.89 325.438 1159.31 326.273C1159.73 327.108 1159.94 328.04 1159.94 329.068C1159.94 330.097 1159.73 331.031 1159.31 331.872C1158.9 332.713 1158.26 333.384 1157.39 333.884C1156.52 334.378 1155.4 334.625 1154.05 334.625H1149.82V332.75H1153.98C1154.91 332.75 1155.67 332.588 1156.24 332.264C1156.8 331.94 1157.22 331.503 1157.47 330.952C1157.73 330.395 1157.86 329.767 1157.86 329.068C1157.86 328.369 1157.73 327.744 1157.47 327.193C1157.22 326.642 1156.8 326.21 1156.23 325.898C1155.65 325.58 1154.89 325.42 1153.94 325.42H1150.23V341H1148.11ZM1163.08 341V327.909H1165.02V329.886H1165.15C1165.39 329.239 1165.83 328.713 1166.45 328.31C1167.08 327.906 1167.78 327.705 1168.56 327.705C1168.71 327.705 1168.9 327.707 1169.12 327.713C1169.34 327.719 1169.51 327.727 1169.62 327.739V329.784C1169.55 329.767 1169.4 329.741 1169.15 329.707C1168.91 329.668 1168.66 329.648 1168.39 329.648C1167.76 329.648 1167.19 329.781 1166.69 330.048C1166.19 330.31 1165.8 330.673 1165.51 331.139C1165.23 331.599 1165.09 332.125 1165.09 332.716V341H1163.08ZM1172 341V327.909H1174.02V341H1172ZM1173.03 325.727C1172.64 325.727 1172.3 325.594 1172.01 325.327C1171.74 325.06 1171.6 324.739 1171.6 324.364C1171.6 323.989 1171.74 323.668 1172.01 323.401C1172.3 323.134 1172.64 323 1173.03 323C1173.42 323 1173.75 323.134 1174.03 323.401C1174.32 323.668 1174.46 323.989 1174.46 324.364C1174.46 324.739 1174.32 325.06 1174.03 325.327C1173.75 325.594 1173.42 325.727 1173.03 325.727ZM1188.4 327.909L1183.56 341H1181.52L1176.68 327.909H1178.86L1182.47 338.341H1182.61L1186.22 327.909H1188.4ZM1194.51 341.307C1193.68 341.307 1192.93 341.151 1192.25 340.838C1191.58 340.52 1191.04 340.062 1190.64 339.466C1190.25 338.864 1190.05 338.136 1190.05 337.284C1190.05 336.534 1190.2 335.926 1190.49 335.46C1190.79 334.989 1191.18 334.619 1191.68 334.352C1192.17 334.085 1192.72 333.886 1193.31 333.756C1193.91 333.619 1194.52 333.511 1195.13 333.432C1195.92 333.33 1196.57 333.253 1197.06 333.202C1197.56 333.145 1197.93 333.051 1198.15 332.92C1198.39 332.79 1198.5 332.562 1198.5 332.239V332.17C1198.5 331.33 1198.27 330.676 1197.81 330.21C1197.36 329.744 1196.67 329.511 1195.74 329.511C1194.78 329.511 1194.03 329.722 1193.48 330.142C1192.94 330.562 1192.55 331.011 1192.33 331.489L1190.42 330.807C1190.76 330.011 1191.22 329.392 1191.79 328.949C1192.36 328.5 1192.99 328.187 1193.66 328.011C1194.34 327.83 1195.01 327.739 1195.67 327.739C1196.09 327.739 1196.58 327.79 1197.12 327.892C1197.67 327.989 1198.2 328.19 1198.72 328.497C1199.23 328.804 1199.66 329.267 1200 329.886C1200.34 330.506 1200.51 331.335 1200.51 332.375V341H1198.5V339.227H1198.4C1198.26 339.511 1198.04 339.815 1197.72 340.139C1197.4 340.463 1196.98 340.739 1196.45 340.966C1195.92 341.193 1195.27 341.307 1194.51 341.307ZM1194.82 339.5C1195.62 339.5 1196.29 339.344 1196.83 339.031C1197.38 338.719 1197.8 338.315 1198.08 337.821C1198.36 337.327 1198.5 336.807 1198.5 336.261V334.42C1198.42 334.523 1198.23 334.616 1197.94 334.702C1197.66 334.781 1197.33 334.852 1196.95 334.915C1196.58 334.972 1196.22 335.023 1195.87 335.068C1195.52 335.108 1195.24 335.142 1195.02 335.17C1194.5 335.239 1194.01 335.349 1193.56 335.503C1193.11 335.651 1192.75 335.875 1192.47 336.176C1192.2 336.472 1192.06 336.875 1192.06 337.386C1192.06 338.085 1192.32 338.614 1192.83 338.972C1193.36 339.324 1194.02 339.5 1194.82 339.5ZM1209.5 341.273C1208.28 341.273 1207.22 340.983 1206.33 340.403C1205.45 339.824 1204.76 339.026 1204.29 338.009C1203.81 336.991 1203.57 335.83 1203.57 334.523C1203.57 333.193 1203.82 332.02 1204.3 331.003C1204.8 329.98 1205.49 329.182 1206.37 328.608C1207.25 328.028 1208.29 327.739 1209.47 327.739C1210.39 327.739 1211.22 327.909 1211.96 328.25C1212.7 328.591 1213.3 329.068 1213.77 329.682C1214.24 330.295 1214.54 331.011 1214.65 331.83H1212.64C1212.49 331.233 1212.14 330.705 1211.62 330.244C1211.09 329.778 1210.39 329.545 1209.5 329.545C1208.72 329.545 1208.03 329.75 1207.44 330.159C1206.86 330.562 1206.4 331.134 1206.07 331.872C1205.74 332.605 1205.58 333.466 1205.58 334.455C1205.58 335.466 1205.74 336.347 1206.06 337.097C1206.38 337.847 1206.84 338.429 1207.42 338.844C1208.01 339.259 1208.71 339.466 1209.5 339.466C1210.03 339.466 1210.5 339.375 1210.93 339.193C1211.35 339.011 1211.71 338.75 1212.01 338.409C1212.3 338.068 1212.51 337.659 1212.64 337.182H1214.65C1214.54 337.955 1214.26 338.651 1213.81 339.27C1213.36 339.884 1212.78 340.372 1212.04 340.736C1211.32 341.094 1210.47 341.273 1209.5 341.273ZM1218.89 345.909C1218.55 345.909 1218.24 345.881 1217.97 345.824C1217.71 345.773 1217.52 345.722 1217.42 345.67L1217.93 343.898C1218.42 344.023 1218.85 344.068 1219.23 344.034C1219.6 344 1219.93 343.832 1220.22 343.531C1220.52 343.236 1220.79 342.756 1221.03 342.091L1221.41 341.068L1216.57 327.909H1218.75L1222.36 338.341H1222.5L1226.11 327.909H1228.3L1222.74 342.909C1222.49 343.585 1222.18 344.145 1221.81 344.588C1221.44 345.037 1221.01 345.369 1220.52 345.585C1220.04 345.801 1219.49 345.909 1218.89 345.909ZM1237.7 345.909V327.909H1239.64V329.989H1239.88C1240.03 329.761 1240.23 329.472 1240.5 329.119C1240.76 328.761 1241.14 328.443 1241.64 328.165C1242.14 327.881 1242.81 327.739 1243.67 327.739C1244.77 327.739 1245.74 328.014 1246.58 328.565C1247.42 329.116 1248.08 329.898 1248.55 330.909C1249.02 331.92 1249.26 333.114 1249.26 334.489C1249.26 335.875 1249.02 337.077 1248.55 338.094C1248.08 339.105 1247.42 339.889 1246.59 340.446C1245.75 340.997 1244.79 341.273 1243.7 341.273C1242.86 341.273 1242.19 341.134 1241.68 340.855C1241.17 340.571 1240.79 340.25 1240.51 339.892C1240.24 339.528 1240.03 339.227 1239.88 338.989H1239.71V345.909H1237.7ZM1239.68 334.455C1239.68 335.443 1239.82 336.315 1240.11 337.071C1240.4 337.821 1240.83 338.409 1241.38 338.835C1241.94 339.256 1242.62 339.466 1243.43 339.466C1244.27 339.466 1244.97 339.244 1245.53 338.801C1246.1 338.352 1246.53 337.75 1246.81 336.994C1247.1 336.233 1247.25 335.386 1247.25 334.455C1247.25 333.534 1247.1 332.705 1246.82 331.966C1246.54 331.222 1246.12 330.634 1245.55 330.202C1244.99 329.764 1244.28 329.545 1243.43 329.545C1242.61 329.545 1241.92 329.753 1241.37 330.168C1240.81 330.577 1240.39 331.151 1240.1 331.889C1239.82 332.622 1239.68 333.477 1239.68 334.455ZM1257.64 341.273C1256.46 341.273 1255.42 340.991 1254.53 340.429C1253.65 339.866 1252.95 339.08 1252.45 338.068C1251.96 337.057 1251.71 335.875 1251.71 334.523C1251.71 333.159 1251.96 331.969 1252.45 330.952C1252.95 329.935 1253.65 329.145 1254.53 328.582C1255.42 328.02 1256.46 327.739 1257.64 327.739C1258.83 327.739 1259.86 328.02 1260.75 328.582C1261.64 329.145 1262.33 329.935 1262.83 330.952C1263.33 331.969 1263.58 333.159 1263.58 334.523C1263.58 335.875 1263.33 337.057 1262.83 338.068C1262.33 339.08 1261.64 339.866 1260.75 340.429C1259.86 340.991 1258.83 341.273 1257.64 341.273ZM1257.64 339.466C1258.54 339.466 1259.28 339.236 1259.86 338.776C1260.44 338.315 1260.87 337.71 1261.15 336.96C1261.42 336.21 1261.56 335.398 1261.56 334.523C1261.56 333.648 1261.42 332.832 1261.15 332.077C1260.87 331.321 1260.44 330.71 1259.86 330.244C1259.28 329.778 1258.54 329.545 1257.64 329.545C1256.75 329.545 1256.01 329.778 1255.43 330.244C1254.85 330.71 1254.42 331.321 1254.14 332.077C1253.86 332.832 1253.72 333.648 1253.72 334.523C1253.72 335.398 1253.86 336.21 1254.14 336.96C1254.42 337.71 1254.85 338.315 1255.43 338.776C1256.01 339.236 1256.75 339.466 1257.64 339.466ZM1268.66 323.545V341H1266.65V323.545H1268.66ZM1272.34 341V327.909H1274.35V341H1272.34ZM1273.36 325.727C1272.97 325.727 1272.63 325.594 1272.35 325.327C1272.07 325.06 1271.93 324.739 1271.93 324.364C1271.93 323.989 1272.07 323.668 1272.35 323.401C1272.63 323.134 1272.97 323 1273.36 323C1273.76 323 1274.09 323.134 1274.37 323.401C1274.65 323.668 1274.8 323.989 1274.8 324.364C1274.8 324.739 1274.65 325.06 1274.37 325.327C1274.09 325.594 1273.76 325.727 1273.36 325.727ZM1283.35 341.273C1282.13 341.273 1281.07 340.983 1280.18 340.403C1279.3 339.824 1278.62 339.026 1278.14 338.009C1277.66 336.991 1277.42 335.83 1277.42 334.523C1277.42 333.193 1277.67 332.02 1278.16 331.003C1278.65 329.98 1279.34 329.182 1280.22 328.608C1281.1 328.028 1282.14 327.739 1283.32 327.739C1284.24 327.739 1285.07 327.909 1285.81 328.25C1286.55 328.591 1287.15 329.068 1287.62 329.682C1288.1 330.295 1288.39 331.011 1288.5 331.83H1286.49C1286.34 331.233 1286 330.705 1285.47 330.244C1284.95 329.778 1284.24 329.545 1283.35 329.545C1282.57 329.545 1281.88 329.75 1281.29 330.159C1280.71 330.562 1280.25 331.134 1279.92 331.872C1279.6 332.605 1279.43 333.466 1279.43 334.455C1279.43 335.466 1279.59 336.347 1279.91 337.097C1280.24 337.847 1280.69 338.429 1281.27 338.844C1281.87 339.259 1282.56 339.466 1283.35 339.466C1283.88 339.466 1284.35 339.375 1284.78 339.193C1285.2 339.011 1285.56 338.75 1285.86 338.409C1286.16 338.068 1286.37 337.659 1286.49 337.182H1288.5C1288.39 337.955 1288.11 338.651 1287.66 339.27C1287.22 339.884 1286.63 340.372 1285.89 340.736C1285.17 341.094 1284.32 341.273 1283.35 341.273ZM1296.93 341.273C1295.67 341.273 1294.58 340.994 1293.67 340.438C1292.76 339.875 1292.06 339.091 1291.56 338.085C1291.07 337.074 1290.83 335.898 1290.83 334.557C1290.83 333.216 1291.07 332.034 1291.56 331.011C1292.06 329.983 1292.74 329.182 1293.62 328.608C1294.51 328.028 1295.54 327.739 1296.73 327.739C1297.41 327.739 1298.08 327.852 1298.75 328.08C1299.41 328.307 1300.02 328.676 1300.56 329.188C1301.11 329.693 1301.54 330.364 1301.87 331.199C1302.19 332.034 1302.35 333.062 1302.35 334.284V335.136H1292.26V333.398H1300.31C1300.31 332.659 1300.16 332 1299.86 331.42C1299.57 330.841 1299.16 330.384 1298.62 330.048C1298.08 329.713 1297.45 329.545 1296.73 329.545C1295.93 329.545 1295.23 329.744 1294.65 330.142C1294.07 330.534 1293.62 331.045 1293.31 331.676C1293 332.307 1292.84 332.983 1292.84 333.705V334.864C1292.84 335.852 1293.01 336.69 1293.35 337.378C1293.7 338.06 1294.18 338.58 1294.79 338.938C1295.41 339.29 1296.12 339.466 1296.93 339.466C1297.46 339.466 1297.94 339.392 1298.36 339.244C1298.79 339.091 1299.17 338.864 1299.48 338.562C1299.79 338.256 1300.03 337.875 1300.2 337.42L1302.15 337.966C1301.94 338.625 1301.6 339.205 1301.12 339.705C1300.63 340.199 1300.04 340.585 1299.33 340.864C1298.62 341.136 1297.82 341.273 1296.93 341.273Z" fill="black"/>
<line x1="139.5" y1="222" x2="139.5" y2="299" stroke="black"/>
<line x1="324.5" y1="222" x2="324.5" y2="299" stroke="black"/>
<line x1="525.5" y1="222" x2="525.5" y2="299" stroke="black"/>
<line x1="805.5" y1="222" x2="805.5" y2="299" stroke="black"/>
<line x1="1006.5" y1="222" x2="1006.5" y2="299" stroke="black"/>
<line x1="1225.5" y1="222" x2="1225.5" y2="299" stroke="black"/>
<path d="M276.114 341V323.545H282.011C283.375 323.545 284.494 323.778 285.369 324.244C286.244 324.705 286.892 325.338 287.312 326.145C287.733 326.952 287.943 327.869 287.943 328.898C287.943 329.926 287.733 330.838 287.312 331.634C286.892 332.429 286.247 333.054 285.378 333.509C284.509 333.957 283.398 334.182 282.045 334.182H277.273V332.273H281.977C282.909 332.273 283.659 332.136 284.227 331.864C284.801 331.591 285.216 331.205 285.472 330.705C285.733 330.199 285.864 329.597 285.864 328.898C285.864 328.199 285.733 327.588 285.472 327.065C285.21 326.543 284.793 326.139 284.219 325.855C283.645 325.565 282.886 325.42 281.943 325.42H278.227V341H276.114ZM284.33 333.159L288.625 341H286.17L281.943 333.159H284.33ZM296.54 341.273C295.279 341.273 294.191 340.994 293.276 340.438C292.367 339.875 291.665 339.091 291.171 338.085C290.683 337.074 290.438 335.898 290.438 334.557C290.438 333.216 290.683 332.034 291.171 331.011C291.665 329.983 292.353 329.182 293.234 328.608C294.12 328.028 295.154 327.739 296.336 327.739C297.018 327.739 297.691 327.852 298.356 328.08C299.021 328.307 299.626 328.676 300.171 329.188C300.717 329.693 301.151 330.364 301.475 331.199C301.799 332.034 301.961 333.062 301.961 334.284V335.136H291.87V333.398H299.915C299.915 332.659 299.768 332 299.472 331.42C299.183 330.841 298.768 330.384 298.228 330.048C297.694 329.713 297.063 329.545 296.336 329.545C295.535 329.545 294.842 329.744 294.256 330.142C293.677 330.534 293.231 331.045 292.918 331.676C292.606 332.307 292.45 332.983 292.45 333.705V334.864C292.45 335.852 292.62 336.69 292.961 337.378C293.308 338.06 293.788 338.58 294.401 338.938C295.015 339.29 295.728 339.466 296.54 339.466C297.069 339.466 297.546 339.392 297.972 339.244C298.404 339.091 298.776 338.864 299.089 338.562C299.401 338.256 299.643 337.875 299.813 337.42L301.756 337.966C301.552 338.625 301.208 339.205 300.725 339.705C300.242 340.199 299.646 340.585 298.935 340.864C298.225 341.136 297.427 341.273 296.54 341.273ZM307.032 333.125V341H305.021V327.909H306.964V329.955H307.134C307.441 329.29 307.907 328.756 308.532 328.352C309.157 327.943 309.964 327.739 310.952 327.739C311.839 327.739 312.614 327.92 313.279 328.284C313.944 328.642 314.461 329.188 314.83 329.92C315.2 330.648 315.384 331.568 315.384 332.682V341H313.373V332.818C313.373 331.79 313.106 330.989 312.572 330.415C312.038 329.835 311.305 329.545 310.373 329.545C309.731 329.545 309.157 329.685 308.651 329.963C308.151 330.241 307.756 330.648 307.467 331.182C307.177 331.716 307.032 332.364 307.032 333.125ZM324.753 327.909V329.614H317.969V327.909H324.753ZM319.946 324.773H321.957V337.25C321.957 337.818 322.04 338.244 322.205 338.528C322.375 338.807 322.591 338.994 322.852 339.091C323.119 339.182 323.401 339.227 323.696 339.227C323.918 339.227 324.099 339.216 324.241 339.193C324.384 339.165 324.497 339.142 324.582 339.125L324.991 340.932C324.855 340.983 324.665 341.034 324.42 341.085C324.176 341.142 323.866 341.17 323.491 341.17C322.923 341.17 322.366 341.048 321.821 340.804C321.281 340.56 320.832 340.188 320.474 339.688C320.122 339.188 319.946 338.557 319.946 337.795V324.773ZM339.847 341.273C338.619 341.273 337.563 340.983 336.676 340.403C335.79 339.824 335.108 339.026 334.631 338.009C334.153 336.991 333.915 335.83 333.915 334.523C333.915 333.193 334.159 332.02 334.648 331.003C335.142 329.98 335.83 329.182 336.71 328.608C337.597 328.028 338.631 327.739 339.812 327.739C340.733 327.739 341.562 327.909 342.301 328.25C343.04 328.591 343.645 329.068 344.116 329.682C344.588 330.295 344.881 331.011 344.994 331.83H342.983C342.83 331.233 342.489 330.705 341.96 330.244C341.438 329.778 340.733 329.545 339.847 329.545C339.063 329.545 338.375 329.75 337.784 330.159C337.199 330.562 336.741 331.134 336.412 331.872C336.088 332.605 335.926 333.466 335.926 334.455C335.926 335.466 336.085 336.347 336.403 337.097C336.727 337.847 337.182 338.429 337.767 338.844C338.358 339.259 339.051 339.466 339.847 339.466C340.369 339.466 340.844 339.375 341.27 339.193C341.696 339.011 342.057 338.75 342.352 338.409C342.648 338.068 342.858 337.659 342.983 337.182H344.994C344.881 337.955 344.599 338.651 344.151 339.27C343.707 339.884 343.119 340.372 342.386 340.736C341.659 341.094 340.813 341.273 339.847 341.273ZM351.787 341.307C350.957 341.307 350.205 341.151 349.528 340.838C348.852 340.52 348.315 340.062 347.918 339.466C347.52 338.864 347.321 338.136 347.321 337.284C347.321 336.534 347.469 335.926 347.764 335.46C348.06 334.989 348.455 334.619 348.949 334.352C349.443 334.085 349.989 333.886 350.585 333.756C351.188 333.619 351.793 333.511 352.401 333.432C353.196 333.33 353.841 333.253 354.335 333.202C354.835 333.145 355.199 333.051 355.426 332.92C355.659 332.79 355.776 332.562 355.776 332.239V332.17C355.776 331.33 355.545 330.676 355.085 330.21C354.631 329.744 353.94 329.511 353.014 329.511C352.054 329.511 351.301 329.722 350.756 330.142C350.21 330.562 349.827 331.011 349.605 331.489L347.696 330.807C348.037 330.011 348.491 329.392 349.06 328.949C349.634 328.5 350.259 328.187 350.935 328.011C351.616 327.83 352.287 327.739 352.946 327.739C353.366 327.739 353.849 327.79 354.395 327.892C354.946 327.989 355.477 328.19 355.989 328.497C356.506 328.804 356.935 329.267 357.276 329.886C357.616 330.506 357.787 331.335 357.787 332.375V341H355.776V339.227H355.673C355.537 339.511 355.31 339.815 354.991 340.139C354.673 340.463 354.25 340.739 353.722 340.966C353.193 341.193 352.548 341.307 351.787 341.307ZM352.094 339.5C352.889 339.5 353.56 339.344 354.105 339.031C354.656 338.719 355.071 338.315 355.349 337.821C355.634 337.327 355.776 336.807 355.776 336.261V334.42C355.69 334.523 355.503 334.616 355.213 334.702C354.929 334.781 354.599 334.852 354.224 334.915C353.855 334.972 353.494 335.023 353.142 335.068C352.795 335.108 352.514 335.142 352.298 335.17C351.776 335.239 351.287 335.349 350.832 335.503C350.384 335.651 350.02 335.875 349.741 336.176C349.469 336.472 349.332 336.875 349.332 337.386C349.332 338.085 349.591 338.614 350.108 338.972C350.631 339.324 351.293 339.5 352.094 339.5ZM361.458 341V327.909H363.401V329.886H363.538C363.776 329.239 364.208 328.713 364.833 328.31C365.458 327.906 366.163 327.705 366.947 327.705C367.094 327.705 367.279 327.707 367.501 327.713C367.722 327.719 367.89 327.727 368.004 327.739V329.784C367.935 329.767 367.779 329.741 367.535 329.707C367.296 329.668 367.043 329.648 366.776 329.648C366.14 329.648 365.572 329.781 365.072 330.048C364.577 330.31 364.185 330.673 363.896 331.139C363.612 331.599 363.469 332.125 363.469 332.716V341H361.458ZM379.661 330.841L377.854 331.352C377.74 331.051 377.572 330.759 377.351 330.474C377.135 330.185 376.839 329.946 376.464 329.759C376.089 329.571 375.609 329.477 375.024 329.477C374.223 329.477 373.555 329.662 373.021 330.031C372.493 330.395 372.229 330.858 372.229 331.42C372.229 331.92 372.411 332.315 372.774 332.605C373.138 332.895 373.706 333.136 374.479 333.33L376.422 333.807C377.592 334.091 378.464 334.526 379.038 335.111C379.612 335.69 379.899 336.437 379.899 337.352C379.899 338.102 379.683 338.773 379.251 339.364C378.825 339.955 378.229 340.42 377.462 340.761C376.695 341.102 375.803 341.273 374.786 341.273C373.45 341.273 372.345 340.983 371.47 340.403C370.595 339.824 370.041 338.977 369.808 337.864L371.717 337.386C371.899 338.091 372.243 338.619 372.749 338.972C373.26 339.324 373.928 339.5 374.751 339.5C375.689 339.5 376.433 339.301 376.984 338.903C377.541 338.5 377.82 338.017 377.82 337.455C377.82 337 377.661 336.619 377.342 336.312C377.024 336 376.536 335.767 375.876 335.614L373.695 335.102C372.496 334.818 371.615 334.378 371.053 333.781C370.496 333.179 370.217 332.426 370.217 331.523C370.217 330.784 370.425 330.131 370.839 329.562C371.26 328.994 371.831 328.548 372.553 328.224C373.28 327.901 374.104 327.739 375.024 327.739C376.32 327.739 377.337 328.023 378.075 328.591C378.82 329.159 379.348 329.909 379.661 330.841Z" fill="black"/>
<path d="M498.159 329H496.045C495.92 328.392 495.702 327.858 495.389 327.398C495.082 326.938 494.707 326.551 494.264 326.239C493.827 325.92 493.341 325.682 492.807 325.523C492.273 325.364 491.716 325.284 491.136 325.284C490.08 325.284 489.122 325.551 488.264 326.085C487.412 326.619 486.733 327.406 486.227 328.446C485.727 329.486 485.477 330.761 485.477 332.273C485.477 333.784 485.727 335.06 486.227 336.099C486.733 337.139 487.412 337.926 488.264 338.46C489.122 338.994 490.08 339.261 491.136 339.261C491.716 339.261 492.273 339.182 492.807 339.023C493.341 338.864 493.827 338.628 494.264 338.315C494.707 337.997 495.082 337.608 495.389 337.148C495.702 336.682 495.92 336.148 496.045 335.545H498.159C498 336.437 497.71 337.236 497.29 337.94C496.869 338.645 496.347 339.244 495.722 339.739C495.097 340.227 494.395 340.599 493.616 340.855C492.844 341.111 492.017 341.239 491.136 341.239C489.648 341.239 488.324 340.875 487.165 340.148C486.006 339.42 485.094 338.386 484.429 337.045C483.764 335.705 483.432 334.114 483.432 332.273C483.432 330.432 483.764 328.841 484.429 327.5C485.094 326.159 486.006 325.125 487.165 324.398C488.324 323.67 489.648 323.307 491.136 323.307C492.017 323.307 492.844 323.435 493.616 323.69C494.395 323.946 495.097 324.321 495.722 324.815C496.347 325.304 496.869 325.901 497.29 326.605C497.71 327.304 498 328.102 498.159 329ZM506.62 341.273C505.438 341.273 504.401 340.991 503.509 340.429C502.623 339.866 501.93 339.08 501.43 338.068C500.935 337.057 500.688 335.875 500.688 334.523C500.688 333.159 500.935 331.969 501.43 330.952C501.93 329.935 502.623 329.145 503.509 328.582C504.401 328.02 505.438 327.739 506.62 327.739C507.802 327.739 508.836 328.02 509.722 328.582C510.614 329.145 511.308 329.935 511.802 330.952C512.302 331.969 512.552 333.159 512.552 334.523C512.552 335.875 512.302 337.057 511.802 338.068C511.308 339.08 510.614 339.866 509.722 340.429C508.836 340.991 507.802 341.273 506.62 341.273ZM506.62 339.466C507.518 339.466 508.256 339.236 508.836 338.776C509.415 338.315 509.844 337.71 510.123 336.96C510.401 336.21 510.54 335.398 510.54 334.523C510.54 333.648 510.401 332.832 510.123 332.077C509.844 331.321 509.415 330.71 508.836 330.244C508.256 329.778 507.518 329.545 506.62 329.545C505.722 329.545 504.984 329.778 504.404 330.244C503.825 330.71 503.396 331.321 503.117 332.077C502.839 332.832 502.7 333.648 502.7 334.523C502.7 335.398 502.839 336.21 503.117 336.96C503.396 337.71 503.825 338.315 504.404 338.776C504.984 339.236 505.722 339.466 506.62 339.466ZM517.634 333.125V341H515.622V327.909H517.565V329.955H517.736C518.043 329.29 518.509 328.756 519.134 328.352C519.759 327.943 520.565 327.739 521.554 327.739C522.44 327.739 523.216 327.92 523.881 328.284C524.545 328.642 525.063 329.188 525.432 329.92C525.801 330.648 525.986 331.568 525.986 332.682V341H523.974V332.818C523.974 331.79 523.707 330.989 523.173 330.415C522.639 329.835 521.906 329.545 520.974 329.545C520.332 329.545 519.759 329.685 519.253 329.963C518.753 330.241 518.358 330.648 518.068 331.182C517.778 331.716 517.634 332.364 517.634 333.125ZM535.354 327.909V329.614H528.57V327.909H535.354ZM530.548 324.773H532.559V337.25C532.559 337.818 532.641 338.244 532.806 338.528C532.977 338.807 533.192 338.994 533.454 339.091C533.721 339.182 534.002 339.227 534.298 339.227C534.519 339.227 534.701 339.216 534.843 339.193C534.985 339.165 535.099 339.142 535.184 339.125L535.593 340.932C535.457 340.983 535.266 341.034 535.022 341.085C534.778 341.142 534.468 341.17 534.093 341.17C533.525 341.17 532.968 341.048 532.423 340.804C531.883 340.56 531.434 340.188 531.076 339.688C530.724 339.188 530.548 338.557 530.548 337.795V324.773ZM542.232 341.307C541.403 341.307 540.65 341.151 539.974 340.838C539.298 340.52 538.761 340.062 538.363 339.466C537.965 338.864 537.766 338.136 537.766 337.284C537.766 336.534 537.914 335.926 538.21 335.46C538.505 334.989 538.9 334.619 539.394 334.352C539.888 334.085 540.434 333.886 541.031 333.756C541.633 333.619 542.238 333.511 542.846 333.432C543.641 333.33 544.286 333.253 544.781 333.202C545.281 333.145 545.644 333.051 545.871 332.92C546.104 332.79 546.221 332.562 546.221 332.239V332.17C546.221 331.33 545.991 330.676 545.531 330.21C545.076 329.744 544.386 329.511 543.46 329.511C542.499 329.511 541.746 329.722 541.201 330.142C540.656 330.562 540.272 331.011 540.05 331.489L538.141 330.807C538.482 330.011 538.937 329.392 539.505 328.949C540.079 328.5 540.704 328.187 541.38 328.011C542.062 327.83 542.732 327.739 543.391 327.739C543.812 327.739 544.295 327.79 544.84 327.892C545.391 327.989 545.923 328.19 546.434 328.497C546.951 328.804 547.38 329.267 547.721 329.886C548.062 330.506 548.232 331.335 548.232 332.375V341H546.221V339.227H546.119C545.982 339.511 545.755 339.815 545.437 340.139C545.119 340.463 544.695 340.739 544.167 340.966C543.638 341.193 542.994 341.307 542.232 341.307ZM542.539 339.5C543.335 339.5 544.005 339.344 544.55 339.031C545.102 338.719 545.516 338.315 545.795 337.821C546.079 337.327 546.221 336.807 546.221 336.261V334.42C546.136 334.523 545.948 334.616 545.658 334.702C545.374 334.781 545.045 334.852 544.67 334.915C544.3 334.972 543.94 335.023 543.587 335.068C543.241 335.108 542.96 335.142 542.744 335.17C542.221 335.239 541.732 335.349 541.278 335.503C540.829 335.651 540.465 335.875 540.187 336.176C539.914 336.472 539.778 336.875 539.778 337.386C539.778 338.085 540.036 338.614 540.553 338.972C541.076 339.324 541.738 339.5 542.539 339.5ZM557.222 341.273C555.994 341.273 554.938 340.983 554.051 340.403C553.165 339.824 552.483 339.026 552.006 338.009C551.528 336.991 551.29 335.83 551.29 334.523C551.29 333.193 551.534 332.02 552.023 331.003C552.517 329.98 553.205 329.182 554.085 328.608C554.972 328.028 556.006 327.739 557.188 327.739C558.108 327.739 558.938 327.909 559.676 328.25C560.415 328.591 561.02 329.068 561.491 329.682C561.963 330.295 562.256 331.011 562.369 331.83H560.358C560.205 331.233 559.864 330.705 559.335 330.244C558.813 329.778 558.108 329.545 557.222 329.545C556.438 329.545 555.75 329.75 555.159 330.159C554.574 330.562 554.116 331.134 553.787 331.872C553.463 332.605 553.301 333.466 553.301 334.455C553.301 335.466 553.46 336.347 553.778 337.097C554.102 337.847 554.557 338.429 555.142 338.844C555.733 339.259 556.426 339.466 557.222 339.466C557.744 339.466 558.219 339.375 558.645 339.193C559.071 339.011 559.432 338.75 559.727 338.409C560.023 338.068 560.233 337.659 560.358 337.182H562.369C562.256 337.955 561.974 338.651 561.526 339.27C561.082 339.884 560.494 340.372 559.761 340.736C559.034 341.094 558.188 341.273 557.222 341.273ZM571.003 327.909V329.614H564.219V327.909H571.003ZM566.196 324.773H568.207V337.25C568.207 337.818 568.29 338.244 568.455 338.528C568.625 338.807 568.841 338.994 569.102 339.091C569.369 339.182 569.651 339.227 569.946 339.227C570.168 339.227 570.349 339.216 570.491 339.193C570.634 339.165 570.747 339.142 570.832 339.125L571.241 340.932C571.105 340.983 570.915 341.034 570.67 341.085C570.426 341.142 570.116 341.17 569.741 341.17C569.173 341.17 568.616 341.048 568.071 340.804C567.531 340.56 567.082 340.188 566.724 339.688C566.372 339.188 566.196 338.557 566.196 337.795V324.773Z" fill="black"/>
<path d="M961.114 341V323.545H967.011C968.375 323.545 969.494 323.778 970.369 324.244C971.244 324.705 971.892 325.338 972.312 326.145C972.733 326.952 972.943 327.869 972.943 328.898C972.943 329.926 972.733 330.838 972.312 331.634C971.892 332.429 971.247 333.054 970.378 333.509C969.509 333.957 968.398 334.182 967.045 334.182H962.273V332.273H966.977C967.909 332.273 968.659 332.136 969.227 331.864C969.801 331.591 970.216 331.205 970.472 330.705C970.733 330.199 970.864 329.597 970.864 328.898C970.864 328.199 970.733 327.588 970.472 327.065C970.21 326.543 969.793 326.139 969.219 325.855C968.645 325.565 967.886 325.42 966.943 325.42H963.227V341H961.114ZM969.33 333.159L973.625 341H971.17L966.943 333.159H969.33ZM981.54 341.273C980.279 341.273 979.191 340.994 978.276 340.438C977.367 339.875 976.665 339.091 976.171 338.085C975.683 337.074 975.438 335.898 975.438 334.557C975.438 333.216 975.683 332.034 976.171 331.011C976.665 329.983 977.353 329.182 978.234 328.608C979.12 328.028 980.154 327.739 981.336 327.739C982.018 327.739 982.691 327.852 983.356 328.08C984.021 328.307 984.626 328.676 985.171 329.188C985.717 329.693 986.151 330.364 986.475 331.199C986.799 332.034 986.961 333.062 986.961 334.284V335.136H976.87V333.398H984.915C984.915 332.659 984.768 332 984.472 331.42C984.183 330.841 983.768 330.384 983.228 330.048C982.694 329.713 982.063 329.545 981.336 329.545C980.535 329.545 979.842 329.744 979.256 330.142C978.677 330.534 978.231 331.045 977.918 331.676C977.606 332.307 977.45 332.983 977.45 333.705V334.864C977.45 335.852 977.62 336.69 977.961 337.378C978.308 338.06 978.788 338.58 979.401 338.938C980.015 339.29 980.728 339.466 981.54 339.466C982.069 339.466 982.546 339.392 982.972 339.244C983.404 339.091 983.776 338.864 984.089 338.562C984.401 338.256 984.643 337.875 984.813 337.42L986.756 337.966C986.552 338.625 986.208 339.205 985.725 339.705C985.242 340.199 984.646 340.585 983.935 340.864C983.225 341.136 982.427 341.273 981.54 341.273ZM995.305 346.182C994.333 346.182 993.498 346.057 992.799 345.807C992.1 345.562 991.518 345.239 991.052 344.835C990.592 344.438 990.225 344.011 989.952 343.557L991.555 342.432C991.737 342.67 991.967 342.943 992.245 343.25C992.523 343.562 992.904 343.832 993.387 344.06C993.876 344.293 994.515 344.409 995.305 344.409C996.362 344.409 997.234 344.153 997.921 343.642C998.609 343.131 998.952 342.33 998.952 341.239V338.58H998.782C998.634 338.818 998.424 339.114 998.151 339.466C997.884 339.812 997.498 340.122 996.992 340.395C996.492 340.662 995.816 340.795 994.964 340.795C993.907 340.795 992.958 340.545 992.117 340.045C991.282 339.545 990.62 338.818 990.131 337.864C989.648 336.909 989.407 335.75 989.407 334.386C989.407 333.045 989.643 331.878 990.114 330.884C990.586 329.884 991.242 329.111 992.083 328.565C992.924 328.014 993.896 327.739 994.998 327.739C995.85 327.739 996.526 327.881 997.026 328.165C997.532 328.443 997.918 328.761 998.185 329.119C998.458 329.472 998.668 329.761 998.816 329.989H999.021V327.909H1000.96V341.375C1000.96 342.5 1000.71 343.415 1000.2 344.119C999.691 344.83 999.009 345.349 998.151 345.679C997.299 346.014 996.35 346.182 995.305 346.182ZM995.237 338.989C996.043 338.989 996.725 338.804 997.282 338.435C997.839 338.065 998.262 337.534 998.552 336.841C998.842 336.148 998.987 335.318 998.987 334.352C998.987 333.409 998.844 332.577 998.56 331.855C998.276 331.134 997.856 330.568 997.299 330.159C996.742 329.75 996.055 329.545 995.237 329.545C994.384 329.545 993.674 329.761 993.106 330.193C992.543 330.625 992.12 331.205 991.836 331.932C991.558 332.659 991.418 333.466 991.418 334.352C991.418 335.261 991.56 336.065 991.844 336.764C992.134 337.457 992.56 338.003 993.123 338.401C993.691 338.793 994.396 338.989 995.237 338.989ZM1004.65 341V327.909H1006.66V341H1004.65ZM1005.67 325.727C1005.28 325.727 1004.94 325.594 1004.65 325.327C1004.38 325.06 1004.24 324.739 1004.24 324.364C1004.24 323.989 1004.38 323.668 1004.65 323.401C1004.94 323.134 1005.28 323 1005.67 323C1006.06 323 1006.4 323.134 1006.67 323.401C1006.96 323.668 1007.1 323.989 1007.1 324.364C1007.1 324.739 1006.96 325.06 1006.67 325.327C1006.4 325.594 1006.06 325.727 1005.67 325.727ZM1019.61 330.841L1017.81 331.352C1017.69 331.051 1017.53 330.759 1017.3 330.474C1017.09 330.185 1016.79 329.946 1016.42 329.759C1016.04 329.571 1015.56 329.477 1014.98 329.477C1014.18 329.477 1013.51 329.662 1012.97 330.031C1012.45 330.395 1012.18 330.858 1012.18 331.42C1012.18 331.92 1012.36 332.315 1012.73 332.605C1013.09 332.895 1013.66 333.136 1014.43 333.33L1016.38 333.807C1017.55 334.091 1018.42 334.526 1018.99 335.111C1019.57 335.69 1019.85 336.437 1019.85 337.352C1019.85 338.102 1019.64 338.773 1019.2 339.364C1018.78 339.955 1018.18 340.42 1017.41 340.761C1016.65 341.102 1015.76 341.273 1014.74 341.273C1013.4 341.273 1012.3 340.983 1011.42 340.403C1010.55 339.824 1009.99 338.977 1009.76 337.864L1011.67 337.386C1011.85 338.091 1012.2 338.619 1012.7 338.972C1013.21 339.324 1013.88 339.5 1014.7 339.5C1015.64 339.5 1016.39 339.301 1016.94 338.903C1017.49 338.5 1017.77 338.017 1017.77 337.455C1017.77 337 1017.61 336.619 1017.3 336.312C1016.98 336 1016.49 335.767 1015.83 335.614L1013.65 335.102C1012.45 334.818 1011.57 334.378 1011.01 333.781C1010.45 333.179 1010.17 332.426 1010.17 331.523C1010.17 330.784 1010.38 330.131 1010.79 329.562C1011.21 328.994 1011.78 328.548 1012.51 328.224C1013.23 327.901 1014.06 327.739 1014.98 327.739C1016.27 327.739 1017.29 328.023 1018.03 328.591C1018.77 329.159 1019.3 329.909 1019.61 330.841ZM1028.57 327.909V329.614H1021.79V327.909H1028.57ZM1023.77 324.773H1025.78V337.25C1025.78 337.818 1025.86 338.244 1026.02 338.528C1026.2 338.807 1026.41 338.994 1026.67 339.091C1026.94 339.182 1027.22 339.227 1027.52 339.227C1027.74 339.227 1027.92 339.216 1028.06 339.193C1028.2 339.165 1028.32 339.142 1028.4 339.125L1028.81 340.932C1028.68 340.983 1028.49 341.034 1028.24 341.085C1028 341.142 1027.69 341.17 1027.31 341.17C1026.74 341.17 1026.19 341.048 1025.64 340.804C1025.1 340.56 1024.65 340.188 1024.29 339.688C1023.94 339.188 1023.77 338.557 1023.77 337.795V324.773ZM1036.95 341.273C1035.69 341.273 1034.6 340.994 1033.68 340.438C1032.77 339.875 1032.07 339.091 1031.58 338.085C1031.09 337.074 1030.84 335.898 1030.84 334.557C1030.84 333.216 1031.09 332.034 1031.58 331.011C1032.07 329.983 1032.76 329.182 1033.64 328.608C1034.53 328.028 1035.56 327.739 1036.74 327.739C1037.42 327.739 1038.1 327.852 1038.76 328.08C1039.43 328.307 1040.03 328.676 1040.58 329.188C1041.12 329.693 1041.56 330.364 1041.88 331.199C1042.21 332.034 1042.37 333.062 1042.37 334.284V335.136H1032.28V333.398H1040.32C1040.32 332.659 1040.17 332 1039.88 331.42C1039.59 330.841 1039.17 330.384 1038.63 330.048C1038.1 329.713 1037.47 329.545 1036.74 329.545C1035.94 329.545 1035.25 329.744 1034.66 330.142C1034.08 330.534 1033.64 331.045 1033.32 331.676C1033.01 332.307 1032.86 332.983 1032.86 333.705V334.864C1032.86 335.852 1033.03 336.69 1033.37 337.378C1033.71 338.06 1034.19 338.58 1034.81 338.938C1035.42 339.29 1036.13 339.466 1036.95 339.466C1037.48 339.466 1037.95 339.392 1038.38 339.244C1038.81 339.091 1039.18 338.864 1039.5 338.562C1039.81 338.256 1040.05 337.875 1040.22 337.42L1042.16 337.966C1041.96 338.625 1041.61 339.205 1041.13 339.705C1040.65 340.199 1040.05 340.585 1039.34 340.864C1038.63 341.136 1037.83 341.273 1036.95 341.273ZM1045.43 341V327.909H1047.37V329.886H1047.51C1047.75 329.239 1048.18 328.713 1048.8 328.31C1049.43 327.906 1050.13 327.705 1050.92 327.705C1051.06 327.705 1051.25 327.707 1051.47 327.713C1051.69 327.719 1051.86 327.727 1051.97 327.739V329.784C1051.9 329.767 1051.75 329.741 1051.5 329.707C1051.26 329.668 1051.01 329.648 1050.75 329.648C1050.11 329.648 1049.54 329.781 1049.04 330.048C1048.55 330.31 1048.15 330.673 1047.86 331.139C1047.58 331.599 1047.44 332.125 1047.44 332.716V341H1045.43Z" fill="black"/>
<rect x="65" y="442" width="151" height="66" fill="#D9D9D9"/>
<line x1="324.5" y1="365" x2="324.5" y2="442" stroke="black"/>
<line x1="140.5" y1="365" x2="140.5" y2="442" stroke="black"/>
<path d="M83.5 484H78.1136V466.545H83.7386C85.4318 466.545 86.8807 466.895 88.0852 467.594C89.2898 468.287 90.2131 469.284 90.8551 470.585C91.4972 471.881 91.8182 473.432 91.8182 475.239C91.8182 477.057 91.4943 478.622 90.8466 479.935C90.1989 481.241 89.2557 482.247 88.017 482.952C86.7784 483.651 85.2727 484 83.5 484ZM80.2273 482.125H83.3636C84.8068 482.125 86.0028 481.847 86.9517 481.29C87.9006 480.733 88.608 479.94 89.0739 478.912C89.5398 477.884 89.7727 476.659 89.7727 475.239C89.7727 473.83 89.5426 472.616 89.0824 471.599C88.6222 470.577 87.9347 469.793 87.0199 469.247C86.1051 468.696 84.9659 468.42 83.6023 468.42H80.2273V482.125ZM100.58 484.273C99.3182 484.273 98.2301 483.994 97.3153 483.438C96.4062 482.875 95.7045 482.091 95.2102 481.085C94.7216 480.074 94.4773 478.898 94.4773 477.557C94.4773 476.216 94.7216 475.034 95.2102 474.011C95.7045 472.983 96.392 472.182 97.2727 471.608C98.1591 471.028 99.1932 470.739 100.375 470.739C101.057 470.739 101.73 470.852 102.395 471.08C103.06 471.307 103.665 471.676 104.21 472.188C104.756 472.693 105.19 473.364 105.514 474.199C105.838 475.034 106 476.062 106 477.284V478.136H95.9091V476.398H103.955C103.955 475.659 103.807 475 103.511 474.42C103.222 473.841 102.807 473.384 102.267 473.048C101.733 472.713 101.102 472.545 100.375 472.545C99.5739 472.545 98.8807 472.744 98.2955 473.142C97.7159 473.534 97.2699 474.045 96.9574 474.676C96.6449 475.307 96.4886 475.983 96.4886 476.705V477.864C96.4886 478.852 96.6591 479.69 97 480.378C97.3466 481.06 97.8267 481.58 98.4403 481.938C99.054 482.29 99.767 482.466 100.58 482.466C101.108 482.466 101.585 482.392 102.011 482.244C102.443 482.091 102.815 481.864 103.128 481.562C103.44 481.256 103.682 480.875 103.852 480.42L105.795 480.966C105.591 481.625 105.247 482.205 104.764 482.705C104.281 483.199 103.685 483.585 102.974 483.864C102.264 484.136 101.466 484.273 100.58 484.273ZM118.332 473.841L116.526 474.352C116.412 474.051 116.244 473.759 116.023 473.474C115.807 473.185 115.511 472.946 115.136 472.759C114.761 472.571 114.281 472.477 113.696 472.477C112.895 472.477 112.227 472.662 111.693 473.031C111.165 473.395 110.901 473.858 110.901 474.42C110.901 474.92 111.082 475.315 111.446 475.605C111.81 475.895 112.378 476.136 113.151 476.33L115.094 476.807C116.264 477.091 117.136 477.526 117.71 478.111C118.284 478.69 118.571 479.437 118.571 480.352C118.571 481.102 118.355 481.773 117.923 482.364C117.497 482.955 116.901 483.42 116.134 483.761C115.366 484.102 114.474 484.273 113.457 484.273C112.122 484.273 111.017 483.983 110.142 483.403C109.267 482.824 108.713 481.977 108.48 480.864L110.389 480.386C110.571 481.091 110.915 481.619 111.42 481.972C111.932 482.324 112.599 482.5 113.423 482.5C114.361 482.5 115.105 482.301 115.656 481.903C116.213 481.5 116.491 481.017 116.491 480.455C116.491 480 116.332 479.619 116.014 479.312C115.696 479 115.207 478.767 114.548 478.614L112.366 478.102C111.168 477.818 110.287 477.378 109.724 476.781C109.168 476.179 108.889 475.426 108.889 474.523C108.889 473.784 109.097 473.131 109.511 472.562C109.932 471.994 110.503 471.548 111.224 471.224C111.952 470.901 112.776 470.739 113.696 470.739C114.991 470.739 116.009 471.023 116.747 471.591C117.491 472.159 118.02 472.909 118.332 473.841ZM126.917 484.273C125.69 484.273 124.633 483.983 123.746 483.403C122.86 482.824 122.178 482.026 121.701 481.009C121.224 479.991 120.985 478.83 120.985 477.523C120.985 476.193 121.229 475.02 121.718 474.003C122.212 472.98 122.9 472.182 123.781 471.608C124.667 471.028 125.701 470.739 126.883 470.739C127.803 470.739 128.633 470.909 129.371 471.25C130.11 471.591 130.715 472.068 131.187 472.682C131.658 473.295 131.951 474.011 132.065 474.83H130.053C129.9 474.233 129.559 473.705 129.031 473.244C128.508 472.778 127.803 472.545 126.917 472.545C126.133 472.545 125.445 472.75 124.854 473.159C124.269 473.562 123.812 474.134 123.482 474.872C123.158 475.605 122.996 476.466 122.996 477.455C122.996 478.466 123.156 479.347 123.474 480.097C123.798 480.847 124.252 481.429 124.837 481.844C125.428 482.259 126.121 482.466 126.917 482.466C127.44 482.466 127.914 482.375 128.34 482.193C128.766 482.011 129.127 481.75 129.423 481.409C129.718 481.068 129.928 480.659 130.053 480.182H132.065C131.951 480.955 131.67 481.651 131.221 482.27C130.778 482.884 130.19 483.372 129.457 483.736C128.729 484.094 127.883 484.273 126.917 484.273ZM135.005 484V470.909H136.948V472.886H137.085C137.323 472.239 137.755 471.713 138.38 471.31C139.005 470.906 139.71 470.705 140.494 470.705C140.641 470.705 140.826 470.707 141.048 470.713C141.269 470.719 141.437 470.727 141.55 470.739V472.784C141.482 472.767 141.326 472.741 141.082 472.707C140.843 472.668 140.59 472.648 140.323 472.648C139.687 472.648 139.119 472.781 138.619 473.048C138.124 473.31 137.732 473.673 137.442 474.139C137.158 474.599 137.016 475.125 137.016 475.716V484H135.005ZM143.935 484V470.909H145.946V484H143.935ZM144.957 468.727C144.565 468.727 144.227 468.594 143.943 468.327C143.665 468.06 143.526 467.739 143.526 467.364C143.526 466.989 143.665 466.668 143.943 466.401C144.227 466.134 144.565 466 144.957 466C145.349 466 145.685 466.134 145.963 466.401C146.247 466.668 146.389 466.989 146.389 467.364C146.389 467.739 146.247 468.06 145.963 468.327C145.685 468.594 145.349 468.727 144.957 468.727ZM149.63 488.909V470.909H151.573V472.989H151.812C151.96 472.761 152.164 472.472 152.425 472.119C152.692 471.761 153.073 471.443 153.567 471.165C154.067 470.881 154.744 470.739 155.596 470.739C156.698 470.739 157.67 471.014 158.511 471.565C159.352 472.116 160.008 472.898 160.479 473.909C160.951 474.92 161.187 476.114 161.187 477.489C161.187 478.875 160.951 480.077 160.479 481.094C160.008 482.105 159.354 482.889 158.519 483.446C157.684 483.997 156.721 484.273 155.63 484.273C154.789 484.273 154.116 484.134 153.61 483.855C153.104 483.571 152.715 483.25 152.442 482.892C152.17 482.528 151.96 482.227 151.812 481.989H151.641V488.909H149.63ZM151.607 477.455C151.607 478.443 151.752 479.315 152.042 480.071C152.332 480.821 152.755 481.409 153.312 481.835C153.869 482.256 154.55 482.466 155.357 482.466C156.198 482.466 156.9 482.244 157.462 481.801C158.031 481.352 158.457 480.75 158.741 479.994C159.031 479.233 159.175 478.386 159.175 477.455C159.175 476.534 159.033 475.705 158.749 474.966C158.471 474.222 158.048 473.634 157.479 473.202C156.917 472.764 156.21 472.545 155.357 472.545C154.539 472.545 153.852 472.753 153.295 473.168C152.738 473.577 152.317 474.151 152.033 474.889C151.749 475.622 151.607 476.477 151.607 477.455ZM169.948 470.909V472.614H163.164V470.909H169.948ZM165.141 467.773H167.153V480.25C167.153 480.818 167.235 481.244 167.4 481.528C167.57 481.807 167.786 481.994 168.048 482.091C168.315 482.182 168.596 482.227 168.891 482.227C169.113 482.227 169.295 482.216 169.437 482.193C169.579 482.165 169.692 482.142 169.778 482.125L170.187 483.932C170.05 483.983 169.86 484.034 169.616 484.085C169.371 484.142 169.062 484.17 168.687 484.17C168.119 484.17 167.562 484.048 167.016 483.804C166.477 483.56 166.028 483.188 165.67 482.688C165.317 482.188 165.141 481.557 165.141 480.795V467.773ZM172.974 484V470.909H174.985V484H172.974ZM173.996 468.727C173.604 468.727 173.266 468.594 172.982 468.327C172.704 468.06 172.565 467.739 172.565 467.364C172.565 466.989 172.704 466.668 172.982 466.401C173.266 466.134 173.604 466 173.996 466C174.388 466 174.724 466.134 175.002 466.401C175.286 466.668 175.428 466.989 175.428 467.364C175.428 467.739 175.286 468.06 175.002 468.327C174.724 468.594 174.388 468.727 173.996 468.727ZM183.987 484.273C182.805 484.273 181.768 483.991 180.876 483.429C179.99 482.866 179.297 482.08 178.797 481.068C178.303 480.057 178.055 478.875 178.055 477.523C178.055 476.159 178.303 474.969 178.797 473.952C179.297 472.935 179.99 472.145 180.876 471.582C181.768 471.02 182.805 470.739 183.987 470.739C185.169 470.739 186.203 471.02 187.089 471.582C187.982 472.145 188.675 472.935 189.169 473.952C189.669 474.969 189.919 476.159 189.919 477.523C189.919 478.875 189.669 480.057 189.169 481.068C188.675 482.08 187.982 482.866 187.089 483.429C186.203 483.991 185.169 484.273 183.987 484.273ZM183.987 482.466C184.885 482.466 185.624 482.236 186.203 481.776C186.783 481.315 187.212 480.71 187.49 479.96C187.768 479.21 187.908 478.398 187.908 477.523C187.908 476.648 187.768 475.832 187.49 475.077C187.212 474.321 186.783 473.71 186.203 473.244C185.624 472.778 184.885 472.545 183.987 472.545C183.089 472.545 182.351 472.778 181.771 473.244C181.192 473.71 180.763 474.321 180.484 475.077C180.206 475.832 180.067 476.648 180.067 477.523C180.067 478.398 180.206 479.21 180.484 479.96C180.763 480.71 181.192 481.315 181.771 481.776C182.351 482.236 183.089 482.466 183.987 482.466ZM195.001 476.125V484H192.989V470.909H194.933V472.955H195.103C195.41 472.29 195.876 471.756 196.501 471.352C197.126 470.943 197.933 470.739 198.921 470.739C199.808 470.739 200.583 470.92 201.248 471.284C201.913 471.642 202.43 472.188 202.799 472.92C203.168 473.648 203.353 474.568 203.353 475.682V484H201.342V475.818C201.342 474.79 201.075 473.989 200.54 473.415C200.006 472.835 199.273 472.545 198.342 472.545C197.7 472.545 197.126 472.685 196.62 472.963C196.12 473.241 195.725 473.648 195.435 474.182C195.146 474.716 195.001 475.364 195.001 476.125Z" fill="black"/>
<rect x="261" y="442" width="151" height="66" fill="#D9D9D9"/>
<path d="M279.5 484H274.114V466.545H279.739C281.432 466.545 282.881 466.895 284.085 467.594C285.29 468.287 286.213 469.284 286.855 470.585C287.497 471.881 287.818 473.432 287.818 475.239C287.818 477.057 287.494 478.622 286.847 479.935C286.199 481.241 285.256 482.247 284.017 482.952C282.778 483.651 281.273 484 279.5 484ZM276.227 482.125H279.364C280.807 482.125 282.003 481.847 282.952 481.29C283.901 480.733 284.608 479.94 285.074 478.912C285.54 477.884 285.773 476.659 285.773 475.239C285.773 473.83 285.543 472.616 285.082 471.599C284.622 470.577 283.935 469.793 283.02 469.247C282.105 468.696 280.966 468.42 279.602 468.42H276.227V482.125ZM296.58 484.273C295.318 484.273 294.23 483.994 293.315 483.438C292.406 482.875 291.705 482.091 291.21 481.085C290.722 480.074 290.477 478.898 290.477 477.557C290.477 476.216 290.722 475.034 291.21 474.011C291.705 472.983 292.392 472.182 293.273 471.608C294.159 471.028 295.193 470.739 296.375 470.739C297.057 470.739 297.73 470.852 298.395 471.08C299.06 471.307 299.665 471.676 300.21 472.188C300.756 472.693 301.19 473.364 301.514 474.199C301.838 475.034 302 476.062 302 477.284V478.136H291.909V476.398H299.955C299.955 475.659 299.807 475 299.511 474.42C299.222 473.841 298.807 473.384 298.267 473.048C297.733 472.713 297.102 472.545 296.375 472.545C295.574 472.545 294.881 472.744 294.295 473.142C293.716 473.534 293.27 474.045 292.957 474.676C292.645 475.307 292.489 475.983 292.489 476.705V477.864C292.489 478.852 292.659 479.69 293 480.378C293.347 481.06 293.827 481.58 294.44 481.938C295.054 482.29 295.767 482.466 296.58 482.466C297.108 482.466 297.585 482.392 298.011 482.244C298.443 482.091 298.815 481.864 299.128 481.562C299.44 481.256 299.682 480.875 299.852 480.42L301.795 480.966C301.591 481.625 301.247 482.205 300.764 482.705C300.281 483.199 299.685 483.585 298.974 483.864C298.264 484.136 297.466 484.273 296.58 484.273ZM314.332 473.841L312.526 474.352C312.412 474.051 312.244 473.759 312.023 473.474C311.807 473.185 311.511 472.946 311.136 472.759C310.761 472.571 310.281 472.477 309.696 472.477C308.895 472.477 308.227 472.662 307.693 473.031C307.165 473.395 306.901 473.858 306.901 474.42C306.901 474.92 307.082 475.315 307.446 475.605C307.81 475.895 308.378 476.136 309.151 476.33L311.094 476.807C312.264 477.091 313.136 477.526 313.71 478.111C314.284 478.69 314.571 479.437 314.571 480.352C314.571 481.102 314.355 481.773 313.923 482.364C313.497 482.955 312.901 483.42 312.134 483.761C311.366 484.102 310.474 484.273 309.457 484.273C308.122 484.273 307.017 483.983 306.142 483.403C305.267 482.824 304.713 481.977 304.48 480.864L306.389 480.386C306.571 481.091 306.915 481.619 307.42 481.972C307.932 482.324 308.599 482.5 309.423 482.5C310.361 482.5 311.105 482.301 311.656 481.903C312.213 481.5 312.491 481.017 312.491 480.455C312.491 480 312.332 479.619 312.014 479.312C311.696 479 311.207 478.767 310.548 478.614L308.366 478.102C307.168 477.818 306.287 477.378 305.724 476.781C305.168 476.179 304.889 475.426 304.889 474.523C304.889 473.784 305.097 473.131 305.511 472.562C305.932 471.994 306.503 471.548 307.224 471.224C307.952 470.901 308.776 470.739 309.696 470.739C310.991 470.739 312.009 471.023 312.747 471.591C313.491 472.159 314.02 472.909 314.332 473.841ZM322.917 484.273C321.69 484.273 320.633 483.983 319.746 483.403C318.86 482.824 318.178 482.026 317.701 481.009C317.224 479.991 316.985 478.83 316.985 477.523C316.985 476.193 317.229 475.02 317.718 474.003C318.212 472.98 318.9 472.182 319.781 471.608C320.667 471.028 321.701 470.739 322.883 470.739C323.803 470.739 324.633 470.909 325.371 471.25C326.11 471.591 326.715 472.068 327.187 472.682C327.658 473.295 327.951 474.011 328.065 474.83H326.053C325.9 474.233 325.559 473.705 325.031 473.244C324.508 472.778 323.803 472.545 322.917 472.545C322.133 472.545 321.445 472.75 320.854 473.159C320.269 473.562 319.812 474.134 319.482 474.872C319.158 475.605 318.996 476.466 318.996 477.455C318.996 478.466 319.156 479.347 319.474 480.097C319.798 480.847 320.252 481.429 320.837 481.844C321.428 482.259 322.121 482.466 322.917 482.466C323.44 482.466 323.914 482.375 324.34 482.193C324.766 482.011 325.127 481.75 325.423 481.409C325.718 481.068 325.928 480.659 326.053 480.182H328.065C327.951 480.955 327.67 481.651 327.221 482.27C326.778 482.884 326.19 483.372 325.457 483.736C324.729 484.094 323.883 484.273 322.917 484.273ZM331.005 484V470.909H332.948V472.886H333.085C333.323 472.239 333.755 471.713 334.38 471.31C335.005 470.906 335.71 470.705 336.494 470.705C336.641 470.705 336.826 470.707 337.048 470.713C337.269 470.719 337.437 470.727 337.55 470.739V472.784C337.482 472.767 337.326 472.741 337.082 472.707C336.843 472.668 336.59 472.648 336.323 472.648C335.687 472.648 335.119 472.781 334.619 473.048C334.124 473.31 333.732 473.673 333.442 474.139C333.158 474.599 333.016 475.125 333.016 475.716V484H331.005ZM339.935 484V470.909H341.946V484H339.935ZM340.957 468.727C340.565 468.727 340.227 468.594 339.943 468.327C339.665 468.06 339.526 467.739 339.526 467.364C339.526 466.989 339.665 466.668 339.943 466.401C340.227 466.134 340.565 466 340.957 466C341.349 466 341.685 466.134 341.963 466.401C342.247 466.668 342.389 466.989 342.389 467.364C342.389 467.739 342.247 468.06 341.963 468.327C341.685 468.594 341.349 468.727 340.957 468.727ZM345.63 488.909V470.909H347.573V472.989H347.812C347.96 472.761 348.164 472.472 348.425 472.119C348.692 471.761 349.073 471.443 349.567 471.165C350.067 470.881 350.744 470.739 351.596 470.739C352.698 470.739 353.67 471.014 354.511 471.565C355.352 472.116 356.008 472.898 356.479 473.909C356.951 474.92 357.187 476.114 357.187 477.489C357.187 478.875 356.951 480.077 356.479 481.094C356.008 482.105 355.354 482.889 354.519 483.446C353.684 483.997 352.721 484.273 351.63 484.273C350.789 484.273 350.116 484.134 349.61 483.855C349.104 483.571 348.715 483.25 348.442 482.892C348.17 482.528 347.96 482.227 347.812 481.989H347.641V488.909H345.63ZM347.607 477.455C347.607 478.443 347.752 479.315 348.042 480.071C348.332 480.821 348.755 481.409 349.312 481.835C349.869 482.256 350.55 482.466 351.357 482.466C352.198 482.466 352.9 482.244 353.462 481.801C354.031 481.352 354.457 480.75 354.741 479.994C355.031 479.233 355.175 478.386 355.175 477.455C355.175 476.534 355.033 475.705 354.749 474.966C354.471 474.222 354.048 473.634 353.479 473.202C352.917 472.764 352.21 472.545 351.357 472.545C350.539 472.545 349.852 472.753 349.295 473.168C348.738 473.577 348.317 474.151 348.033 474.889C347.749 475.622 347.607 476.477 347.607 477.455ZM365.948 470.909V472.614H359.164V470.909H365.948ZM361.141 467.773H363.153V480.25C363.153 480.818 363.235 481.244 363.4 481.528C363.57 481.807 363.786 481.994 364.048 482.091C364.315 482.182 364.596 482.227 364.891 482.227C365.113 482.227 365.295 482.216 365.437 482.193C365.579 482.165 365.692 482.142 365.778 482.125L366.187 483.932C366.05 483.983 365.86 484.034 365.616 484.085C365.371 484.142 365.062 484.17 364.687 484.17C364.119 484.17 363.562 484.048 363.016 483.804C362.477 483.56 362.028 483.188 361.67 482.688C361.317 482.188 361.141 481.557 361.141 480.795V467.773ZM368.974 484V470.909H370.985V484H368.974ZM369.996 468.727C369.604 468.727 369.266 468.594 368.982 468.327C368.704 468.06 368.565 467.739 368.565 467.364C368.565 466.989 368.704 466.668 368.982 466.401C369.266 466.134 369.604 466 369.996 466C370.388 466 370.724 466.134 371.002 466.401C371.286 466.668 371.428 466.989 371.428 467.364C371.428 467.739 371.286 468.06 371.002 468.327C370.724 468.594 370.388 468.727 369.996 468.727ZM379.987 484.273C378.805 484.273 377.768 483.991 376.876 483.429C375.99 482.866 375.297 482.08 374.797 481.068C374.303 480.057 374.055 478.875 374.055 477.523C374.055 476.159 374.303 474.969 374.797 473.952C375.297 472.935 375.99 472.145 376.876 471.582C377.768 471.02 378.805 470.739 379.987 470.739C381.169 470.739 382.203 471.02 383.089 471.582C383.982 472.145 384.675 472.935 385.169 473.952C385.669 474.969 385.919 476.159 385.919 477.523C385.919 478.875 385.669 480.057 385.169 481.068C384.675 482.08 383.982 482.866 383.089 483.429C382.203 483.991 381.169 484.273 379.987 484.273ZM379.987 482.466C380.885 482.466 381.624 482.236 382.203 481.776C382.783 481.315 383.212 480.71 383.49 479.96C383.768 479.21 383.908 478.398 383.908 477.523C383.908 476.648 383.768 475.832 383.49 475.077C383.212 474.321 382.783 473.71 382.203 473.244C381.624 472.778 380.885 472.545 379.987 472.545C379.089 472.545 378.351 472.778 377.771 473.244C377.192 473.71 376.763 474.321 376.484 475.077C376.206 475.832 376.067 476.648 376.067 477.523C376.067 478.398 376.206 479.21 376.484 479.96C376.763 480.71 377.192 481.315 377.771 481.776C378.351 482.236 379.089 482.466 379.987 482.466ZM391.001 476.125V484H388.989V470.909H390.933V472.955H391.103C391.41 472.29 391.876 471.756 392.501 471.352C393.126 470.943 393.933 470.739 394.921 470.739C395.808 470.739 396.583 470.92 397.248 471.284C397.913 471.642 398.43 472.188 398.799 472.92C399.168 473.648 399.353 474.568 399.353 475.682V484H397.342V475.818C397.342 474.79 397.075 473.989 396.54 473.415C396.006 472.835 395.273 472.545 394.342 472.545C393.7 472.545 393.126 472.685 392.62 472.963C392.12 473.241 391.725 473.648 391.435 474.182C391.146 474.716 391.001 475.364 391.001 476.125Z" fill="black"/>
</svg>
